<svg width="779" height="327" viewBox="0 0 779 327" fill="none" xmlns="http://www.w3.org/2000/svg">
<path d="M184.613 234.293H162L203.172 118H229.325L270.554 234.293H247.941L216.705 141.849H215.792L184.613 234.293ZM185.355 188.696H247.027V205.617H185.355V188.696Z" fill="#091B25"/>
<path d="M294.459 183.188V234.293H273.788V147.073H293.546V161.894H294.574C296.591 157.01 299.808 153.13 304.224 150.253C308.678 147.376 314.179 145.938 320.727 145.938C326.78 145.938 332.053 147.225 336.545 149.799C341.075 152.373 344.577 156.102 347.052 160.985C349.564 165.869 350.802 171.793 350.764 178.758V234.293H330.092V181.938C330.092 176.108 328.569 171.547 325.524 168.253C322.516 164.96 318.348 163.313 313.018 163.313C309.402 163.313 306.185 164.108 303.368 165.698C300.589 167.25 298.4 169.503 296.801 172.455C295.24 175.408 294.459 178.986 294.459 183.188Z" fill="#091B25"/>
<path d="M370.229 267C367.412 267 364.804 266.773 362.406 266.319C360.046 265.902 358.161 265.41 356.753 264.842L361.549 248.829C364.557 249.7 367.241 250.116 369.601 250.079C371.961 250.041 374.036 249.302 375.825 247.864C377.653 246.463 379.194 244.116 380.451 240.823L382.221 236.11L350.414 147.073H372.342L392.557 212.942H393.47L413.742 147.073H435.727L400.608 244.854C398.971 249.473 396.801 253.429 394.098 256.722C391.396 260.053 388.084 262.59 384.162 264.331C380.279 266.11 375.635 267 370.229 267Z" fill="#091B25"/>
<path d="M474.051 235.996C465.295 235.996 457.776 234.084 451.495 230.261C445.252 226.438 440.436 221.157 437.048 214.418C433.698 207.642 432.023 199.844 432.023 191.024C432.023 182.165 433.736 174.348 437.162 167.572C440.588 160.758 445.423 155.458 451.666 151.673C457.948 147.849 465.371 145.938 473.937 145.938C481.056 145.938 487.356 147.244 492.838 149.856C498.358 152.43 502.755 156.083 506.029 160.815C509.303 165.509 511.168 170.998 511.625 177.282H491.867C491.068 173.08 489.164 169.578 486.157 166.777C483.188 163.938 479.209 162.518 474.222 162.518C469.997 162.518 466.285 163.654 463.087 165.925C459.889 168.159 457.396 171.377 455.607 175.579C453.855 179.78 452.98 184.815 452.98 190.683C452.98 196.626 453.855 201.737 455.607 206.014C457.358 210.254 459.813 213.529 462.973 215.838C466.171 218.109 469.92 219.245 474.222 219.245C477.268 219.245 479.99 218.677 482.388 217.542C484.825 216.368 486.861 214.683 488.498 212.488C490.135 210.292 491.258 207.623 491.867 204.481H511.625C511.13 210.652 509.303 216.122 506.143 220.892C502.984 225.624 498.682 229.334 493.238 232.021C487.794 234.671 481.398 235.996 474.051 235.996Z" fill="#091B25"/>
<path d="M538.015 118V234.293H517.343V118H538.015Z" fill="#091B25"/>
<path d="M573.255 236.053C567.697 236.053 562.691 235.069 558.237 233.1C553.821 231.094 550.318 228.141 547.73 224.242C545.179 220.343 543.904 215.535 543.904 209.819C543.904 204.898 544.817 200.828 546.645 197.611C548.472 194.393 550.965 191.819 554.125 189.888C557.285 187.957 560.844 186.5 564.804 185.516C568.801 184.494 572.931 183.755 577.195 183.301C582.334 182.771 586.503 182.298 589.701 181.881C592.899 181.427 595.221 180.746 596.667 179.837C598.152 178.891 598.894 177.433 598.894 175.465V175.124C598.894 170.847 597.619 167.534 595.069 165.187C592.518 162.84 588.844 161.667 584.047 161.667C578.984 161.667 574.968 162.764 571.999 164.96C569.067 167.156 567.088 169.749 566.06 172.739L546.759 170.014C548.282 164.714 550.794 160.285 554.297 156.726C557.799 153.13 562.082 150.442 567.145 148.663C572.208 146.846 577.804 145.938 583.933 145.938C588.159 145.938 592.366 146.43 596.553 147.414C600.741 148.398 604.567 150.026 608.031 152.297C611.495 154.531 614.274 157.578 616.368 161.439C618.5 165.301 619.566 170.127 619.566 175.919V234.293H599.694V222.311H599.009C597.752 224.734 595.982 227.005 593.698 229.125C591.452 231.207 588.616 232.892 585.19 234.179C581.801 235.428 577.823 236.053 573.255 236.053ZM578.623 220.949C582.772 220.949 586.37 220.135 589.415 218.507C592.461 216.841 594.802 214.646 596.439 211.92C598.114 209.194 598.952 206.223 598.952 203.005V192.727C598.304 193.257 597.2 193.749 595.64 194.204C594.117 194.658 592.404 195.055 590.5 195.396C588.597 195.737 586.712 196.04 584.847 196.304C582.982 196.569 581.364 196.797 579.993 196.986C576.91 197.402 574.15 198.084 571.713 199.03C569.277 199.977 567.354 201.301 565.946 203.005C564.537 204.671 563.833 206.828 563.833 209.478C563.833 213.264 565.222 216.122 568.001 218.053C570.78 219.983 574.321 220.949 578.623 220.949Z" fill="#091B25"/>
<path d="M627.953 234.293V221.232L673.179 164.846V164.108H629.438V147.073H698.476V161.099L655.42 216.519V217.258H699.961V234.293H627.953Z" fill="#091B25"/>
<path d="M706.992 234.293V221.232L752.218 164.846V164.108H708.477V147.073H777.515V161.099L734.459 216.519V217.258H779V234.293H706.992Z" fill="#091B25"/>
<path d="M45.1457 151.651C24.6107 204.224 19.8816 240.892 21.2972 254.08C22.241 256.212 24.8691 260.541 27.8311 260.801C30.7931 261.061 35 241.5 35 241.5C35 241.5 36.9566 232.66 45.1457 225.463C55.382 216.466 77.597 191.208 79.3393 188.932C81.0817 186.656 86.5265 178.959 89.7934 175.816C93.0604 172.672 96.7629 165.084 95.2383 165.084C93.7137 165.084 75.7457 174.732 76.0724 172.239C76.3991 169.745 98.1785 152.727 103.188 148.716C108.197 144.705 121.156 117.172 124.64 108.391C128.125 99.611 131.937 90.6139 130.412 90.6139C129.192 90.6139 109.141 98.5632 99.2675 102.538C98.8319 102.249 102.6 97.4647 121.156 80.6411C152.845 52.7825 155.676 16.4687 156.656 8.01356C157.636 -0.441594 156.33 -0.333195 155.132 0.208802C127.907 10.5067 85.002 38.4738 49.9371 71.8608C14.8723 105.248 3.00254 153.269 0.280111 177.875C-2.44231 202.482 15.5257 238.254 17.5947 237.929C19.6638 237.603 14.8723 208.444 37.1962 155.328C55.0553 112.836 82.3885 80.3882 93.8226 69.476C85.2924 81.8335 62.53 107.143 45.1457 151.651Z" fill="url(#paint0_linear_108_6484)"/>
<path d="M13.3478 299.825C13.3478 306.589 10.1274 325.09 11.4342 326.933C12.5309 328.479 26.815 302.976 27.9865 298.315C29.158 293.654 30.0825 280.707 31.3158 265.245C32.5602 249.644 34.9559 244.549 29.0755 244.549C19.2748 244.549 20.6904 254.847 18.7303 270.673C16.2257 284.006 13.3478 291.37 13.3478 299.825Z" fill="#091B25"/>
<defs>
<linearGradient id="paint0_linear_108_6484" x1="100.73" y1="182.531" x2="25.4307" y2="114.002" gradientUnits="userSpaceOnUse">
<stop stop-color="#EF972F"/>
<stop offset="1" stop-color="#F5B939"/>
</linearGradient>
</defs>
</svg>
