<svg width="157" height="327" viewBox="0 0 157 327" fill="none" xmlns="http://www.w3.org/2000/svg">
<path d="M45.1457 151.651C24.6107 204.224 19.8816 240.892 21.2972 254.08C22.241 256.212 24.8691 260.541 27.8311 260.801C30.7931 261.061 35 241.5 35 241.5C35 241.5 36.9566 232.66 45.1457 225.463C55.382 216.466 77.597 191.208 79.3393 188.932C81.0817 186.656 86.5265 178.959 89.7934 175.816C93.0604 172.672 96.7629 165.084 95.2383 165.084C93.7137 165.084 75.7457 174.732 76.0724 172.239C76.3991 169.745 98.1785 152.727 103.188 148.716C108.197 144.705 121.156 117.172 124.64 108.391C128.125 99.611 131.937 90.6139 130.412 90.6139C129.192 90.6139 109.141 98.5632 99.2675 102.538C98.8319 102.249 102.6 97.4647 121.156 80.6411C152.845 52.7825 155.676 16.4687 156.656 8.01356C157.636 -0.441594 156.33 -0.333195 155.132 0.208802C127.907 10.5067 85.002 38.4738 49.9371 71.8608C14.8723 105.248 3.00254 153.269 0.280111 177.875C-2.44231 202.482 15.5257 238.254 17.5947 237.929C19.6638 237.603 14.8723 208.444 37.1962 155.328C55.0553 112.836 82.3885 80.3882 93.8226 69.476C85.2924 81.8335 62.53 107.143 45.1457 151.651Z" fill="url(#paint0_linear_108_6494)"/>
<path d="M13.3478 299.825C13.3478 306.589 10.1274 325.09 11.4342 326.933C12.5309 328.479 26.815 302.976 27.9865 298.315C29.158 293.654 30.0825 280.707 31.3158 265.245C32.5602 249.644 34.9559 244.549 29.0755 244.549C19.2748 244.549 20.6904 254.847 18.7303 270.673C16.2257 284.006 13.3478 291.37 13.3478 299.825Z" fill="white"/>
<defs>
<linearGradient id="paint0_linear_108_6494" x1="100.73" y1="182.531" x2="25.4307" y2="114.002" gradientUnits="userSpaceOnUse">
<stop stop-color="#FFDAA9"/>
<stop offset="1" stop-color="#FFCF69"/>
</linearGradient>
</defs>
</svg>
