<svg width="20" height="20" viewBox="0 0 20 20" fill="none" xmlns="http://www.w3.org/2000/svg">
<g clip-path="url(#clip0_408_8427)">
<path d="M0 9.99918C0 11.2224 0.220039 12.3941 0.621992 13.4774L10 14.347L19.378 13.4774C19.78 12.3941 20 11.2224 20 9.99918C20 8.77597 19.78 7.60426 19.378 6.52094L10 5.65137L0.621992 6.52094C0.220039 7.60426 0 8.77597 0 9.99918Z" fill="#FFDA44"/>
<path d="M19.3794 6.52176C17.9665 2.71379 14.3011 0 10.0014 0C5.70177 0 2.03634 2.71379 0.623413 6.52176H19.3794Z" fill="#D80027"/>
<path d="M0.622437 13.4785C2.03537 17.2865 5.7008 20.0003 10.0004 20.0003C14.3001 20.0003 17.9655 17.2865 19.3785 13.4785H0.622437Z" fill="#D80027"/>
</g>
<defs>
<clipPath id="clip0_408_8427">
<rect width="20" height="20" fill="white"/>
</clipPath>
</defs>
</svg>
