<svg width="20" height="20" viewBox="0 0 20 20" fill="none" xmlns="http://www.w3.org/2000/svg">
<g clip-path="url(#clip0_gb)">
<path d="M0 0H20V20H0V0Z" fill="#012169"/>
<path d="M2.22222 0L10 5.77778L17.7778 0H20V2.22222L12.2222 10L20 17.7778V20H17.7778L10 14.2222L2.22222 20H0V17.7778L7.77778 10L0 2.22222V0H2.22222Z" fill="#FFFFFF"/>
<path d="M0 0V0.888889L7.77778 6.66667H9.11111L0.888889 0H0ZM20 0H19.1111L11.3333 6.66667H10L18.2222 0H20ZM0 20V19.1111L7.77778 13.3333H9.11111L0.888889 20H0ZM20 20H19.1111L11.3333 13.3333H10L18.2222 20H20Z" fill="#C8102E"/>
<path d="M7.77778 0V20H12.2222V0H7.77778ZM0 6.66667V13.3333H20V6.66667H0Z" fill="#FFFFFF"/>
<path d="M0 8H20V12H0V8ZM9 0V20H11V0H9Z" fill="#C8102E"/>
</g>
<defs>
<clipPath id="clip0_gb">
<rect width="20" height="20" fill="white"/>
</clipPath>
</defs>
</svg>
