<svg xmlns="http://www.w3.org/2000/svg" width="24" height="24" viewBox="0 0 24 24" fill="none">
  <circle cx="12" cy="12" r="11" fill="white"/>
  <mask id="mask0" mask-type="alpha" maskUnits="userSpaceOnUse" x="1" y="1" width="22" height="22">
    <circle cx="12" cy="12" r="11" fill="white"/>
  </mask>
  <g mask="url(#mask0)">
    <path d="M1 3.23077H23V4.69231H1V3.23077Z" fill="#B22234"/>
    <path d="M1 4.69231H23V6.15385H1V4.69231Z" fill="white"/>
    <path d="M1 6.15385H23V7.61539H1V6.15385Z" fill="#B22234"/>
    <path d="M1 7.61539H23V9.07693H1V7.61539Z" fill="white"/>
    <path d="M1 9.07693H23V10.5385H1V9.07693Z" fill="#B22234"/>
    <path d="M1 10.5385H23V12H1V10.5385Z" fill="white"/>
    <path d="M1 12H23V13.4615H1V12Z" fill="#B22234"/>
    <path d="M1 13.4615H23V14.9231H1V13.4615Z" fill="white"/>
    <path d="M1 14.9231H23V16.3846H1V14.9231Z" fill="#B22234"/>
    <path d="M1 16.3846H23V17.8462H1V16.3846Z" fill="white"/>
    <path d="M1 17.8462H23V19.3077H1V17.8462Z" fill="#B22234"/>
    <path d="M1 19.3077H23V20.7692H1V19.3077Z" fill="white"/>
    <path d="M1 20.7692H23V22.2308H1V20.7692Z" fill="#B22234"/>
    <rect x="1" y="3.23077" width="9.46154" height="8.30769" fill="#3C3B6E"/>
    <path d="M2.5 4.5L2.7 5.1H3.3L2.8 5.5L3 6.1L2.5 5.7L2 6.1L2.2 5.5L1.7 5.1H2.3L2.5 4.5Z" fill="white"/>
    <path d="M4.5 4.5L4.7 5.1H5.3L4.8 5.5L5 6.1L4.5 5.7L4 6.1L4.2 5.5L3.7 5.1H4.3L4.5 4.5Z" fill="white"/>
    <path d="M6.5 4.5L6.7 5.1H7.3L6.8 5.5L7 6.1L6.5 5.7L6 6.1L6.2 5.5L5.7 5.1H6.3L6.5 4.5Z" fill="white"/>
    <path d="M8.5 4.5L8.7 5.1H9.3L8.8 5.5L9 6.1L8.5 5.7L8 6.1L8.2 5.5L7.7 5.1H8.3L8.5 4.5Z" fill="white"/>
    <path d="M3.5 6L3.7 6.6H4.3L3.8 7L4 7.6L3.5 7.2L3 7.6L3.2 7L2.7 6.6H3.3L3.5 6Z" fill="white"/>
    <path d="M5.5 6L5.7 6.6H6.3L5.8 7L6 7.6L5.5 7.2L5 7.6L5.2 7L4.7 6.6H5.3L5.5 6Z" fill="white"/>
    <path d="M7.5 6L7.7 6.6H8.3L7.8 7L8 7.6L7.5 7.2L7 7.6L7.2 7L6.7 6.6H7.3L7.5 6Z" fill="white"/>
    <path d="M9.5 6L9.7 6.6H10.3L9.8 7L10 7.6L9.5 7.2L9 7.6L9.2 7L8.7 6.6H9.3L9.5 6Z" fill="white"/>
    <path d="M2.5 7.5L2.7 8.1H3.3L2.8 8.5L3 9.1L2.5 8.7L2 9.1L2.2 8.5L1.7 8.1H2.3L2.5 7.5Z" fill="white"/>
    <path d="M4.5 7.5L4.7 8.1H5.3L4.8 8.5L5 9.1L4.5 8.7L4 9.1L4.2 8.5L3.7 8.1H4.3L4.5 7.5Z" fill="white"/>
    <path d="M6.5 7.5L6.7 8.1H7.3L6.8 8.5L7 9.1L6.5 8.7L6 9.1L6.2 8.5L5.7 8.1H6.3L6.5 7.5Z" fill="white"/>
    <path d="M8.5 7.5L8.7 8.1H9.3L8.8 8.5L9 9.1L8.5 8.7L8 9.1L8.2 8.5L7.7 8.1H8.3L8.5 7.5Z" fill="white"/>
    <path d="M3.5 9L3.7 9.6H4.3L3.8 10L4 10.6L3.5 10.2L3 10.6L3.2 10L2.7 9.6H3.3L3.5 9Z" fill="white"/>
    <path d="M5.5 9L5.7 9.6H6.3L5.8 10L6 10.6L5.5 10.2L5 10.6L5.2 10L4.7 9.6H5.3L5.5 9Z" fill="white"/>
    <path d="M7.5 9L7.7 9.6H8.3L7.8 10L8 10.6L7.5 10.2L7 10.6L7.2 10L6.7 9.6H7.3L7.5 9Z" fill="white"/>
    <path d="M9.5 9L9.7 9.6H10.3L9.8 10L10 10.6L9.5 10.2L9 10.6L9.2 10L8.7 9.6H9.3L9.5 9Z" fill="white"/>
  </g>
</svg>
