<svg width="16" height="16" viewBox="0 0 16 16" fill="none" xmlns="http://www.w3.org/2000/svg">
<path d="M12.3555 2.83406C12.5075 3.20158 12.7992 3.4937 13.1665 3.64621L14.4544 4.17967C14.8219 4.33192 15.1139 4.62393 15.2662 4.99147C15.4184 5.35901 15.4184 5.77198 15.2662 6.13952L14.7331 7.42648C14.5808 7.79419 14.5806 8.20757 14.7336 8.5751L15.2657 9.86168C15.3412 10.0437 15.38 10.2388 15.3801 10.4359C15.3801 10.633 15.3413 10.8281 15.2659 11.0102C15.1905 11.1922 15.0799 11.3577 14.9406 11.497C14.8012 11.6363 14.6357 11.7468 14.4537 11.8222L13.1667 12.3552C12.7992 12.5072 12.5071 12.7989 12.3545 13.1662L11.8211 14.4541C11.6688 14.8216 11.3768 15.1136 11.0093 15.2658C10.6417 15.4181 10.2288 15.4181 9.86124 15.2658L8.57427 14.7328C8.20672 14.5809 7.79391 14.5812 7.42658 14.7336L6.13869 15.2663C5.77136 15.4182 5.35875 15.4181 4.99151 15.266C4.62426 15.1139 4.33241 14.8222 4.18007 14.455L3.64645 13.1668C3.49449 12.7993 3.2028 12.5071 2.83552 12.3546L1.54763 11.8212C1.18025 11.669 0.888324 11.3772 0.736026 11.0098C0.583729 10.6425 0.583522 10.2297 0.735452 9.86223L1.26853 8.57527C1.4204 8.20772 1.42009 7.7949 1.26767 7.42758L0.735355 6.13876C0.659883 5.95672 0.621022 5.7616 0.62099 5.56453C0.620959 5.36747 0.659758 5.17233 0.735171 4.99027C0.810584 4.80821 0.921132 4.64279 1.0605 4.50346C1.19987 4.36414 1.36532 4.25365 1.54741 4.17829L2.83437 3.64521C3.20157 3.49338 3.49352 3.20207 3.64614 2.83521L4.1796 1.54732C4.33184 1.17978 4.62386 0.887764 4.9914 0.735523C5.35894 0.583282 5.77191 0.583282 6.13945 0.735523L7.42641 1.2686C7.79396 1.42047 8.20678 1.42016 8.5741 1.26774L9.86253 0.73635C10.23 0.584195 10.6429 0.584226 11.0104 0.736437C11.3778 0.888648 11.6698 1.18058 11.8221 1.54802L12.3557 2.83629L12.3555 2.83406Z" fill="#F4A43A"/>
</svg>
