<svg width="20" height="20" viewBox="0 0 20 20" fill="none" xmlns="http://www.w3.org/2000/svg">
<path d="M3.75 14.75C3.75 15.68 3.75 16.145 3.85222 16.5265C4.12962 17.5617 4.93827 18.3704 5.97354 18.6478C6.35504 18.75 6.82003 18.75 7.75 18.75H13.95C15.6302 18.75 16.4702 18.75 17.112 18.423C17.6765 18.1354 18.1354 17.6765 18.423 17.112C18.75 16.4702 18.75 15.6302 18.75 13.95V5.55C18.75 3.86984 18.75 3.02976 18.423 2.38803C18.1354 1.82354 17.6765 1.3646 17.112 1.07698C16.4702 0.75 15.6302 0.75 13.95 0.75H7.75C6.82003 0.75 6.35504 0.75 5.97354 0.852223C4.93827 1.12962 4.12962 1.93827 3.85222 2.97354C3.75 3.35504 3.75 3.82003 3.75 4.75M9.75 5.75L13.75 9.75M13.75 9.75L9.75 13.75M13.75 9.75H0.75" stroke="#F4A43A" stroke-width="1.5" stroke-linecap="round" stroke-linejoin="round"/>
</svg>
