<svg width="56" height="56" viewBox="0 0 56 56" fill="none" xmlns="http://www.w3.org/2000/svg">
<path d="M21 25.6667L25.6667 30.3333L36.1667 19.8333M23.1 44.8L26.5067 49.3422C27.0133 50.0177 27.2666 50.3554 27.5771 50.4762C27.8491 50.582 28.1509 50.582 28.4229 50.4762C28.7334 50.3554 28.9867 50.0177 29.4933 49.3422L32.9 44.8C33.584 43.888 33.926 43.432 34.3432 43.0838C34.8994 42.6196 35.5561 42.2913 36.2612 42.1248C36.79 42 37.36 42 38.5 42C41.7616 42 43.3924 42 44.6788 41.4672C46.394 40.7567 47.7567 39.394 48.4672 37.6788C49 36.3924 49 34.7616 49 31.5V18.2C49 14.2796 49 12.3194 48.237 10.8221C47.5659 9.50493 46.4951 8.43407 45.1779 7.76295C43.6805 7 41.7204 7 37.8 7H18.2C14.2796 7 12.3194 7 10.8221 7.76295C9.50493 8.43407 8.43407 9.50493 7.76295 10.8221C7 12.3194 7 14.2796 7 18.2V31.5C7 34.7616 7 36.3924 7.53284 37.6788C8.2433 39.394 9.60602 40.7567 11.3212 41.4672C12.6076 42 14.2384 42 17.5 42C18.64 42 19.21 42 19.7388 42.1248C20.4439 42.2913 21.1006 42.6196 21.6568 43.0838C22.074 43.432 22.416 43.888 23.1 44.8Z" stroke="#F4A43A" stroke-width="4" stroke-linecap="round" stroke-linejoin="round"/>
</svg>
