<svg width="20" height="18" viewBox="0 0 20 18" fill="none" xmlns="http://www.w3.org/2000/svg">
<path d="M10.0001 16.5L9.9167 16.3749C9.33783 15.5066 9.0484 15.0725 8.666 14.7582C8.32746 14.4799 7.93739 14.2712 7.51809 14.1438C7.04446 14 6.52267 14 5.4791 14H4.33341C3.39999 14 2.93328 14 2.57676 13.8183C2.26316 13.6586 2.00819 13.4036 1.8484 13.09C1.66675 12.7335 1.66675 12.2668 1.66675 11.3333V4.16667C1.66675 3.23325 1.66675 2.76654 1.8484 2.41002C2.00819 2.09641 2.26316 1.84144 2.57676 1.68166C2.93328 1.5 3.39999 1.5 4.33341 1.5H4.66675C6.53359 1.5 7.46701 1.5 8.18005 1.86331C8.80726 2.18289 9.31719 2.69282 9.63677 3.32003C10.0001 4.03307 10.0001 4.96649 10.0001 6.83333M10.0001 16.5V6.83333M10.0001 16.5L10.0835 16.3749C10.6623 15.5066 10.9518 15.0725 11.3342 14.7582C11.6727 14.4799 12.0628 14.2712 12.4821 14.1438C12.9557 14 13.4775 14 14.5211 14H15.6667C16.6002 14 17.0669 14 17.4234 13.8183C17.737 13.6586 17.992 13.4036 18.1518 13.09C18.3334 12.7335 18.3334 12.2668 18.3334 11.3333V4.16667C18.3334 3.23325 18.3334 2.76654 18.1518 2.41002C17.992 2.09641 17.737 1.84144 17.4234 1.68166C17.0669 1.5 16.6002 1.5 15.6667 1.5H15.3334C13.4666 1.5 12.5332 1.5 11.8201 1.86331C11.1929 2.18289 10.683 2.69282 10.3634 3.32003C10.0001 4.03307 10.0001 4.96649 10.0001 6.83333" stroke="#A4A7AE" stroke-width="1.5" stroke-linecap="round" stroke-linejoin="round"/>
</svg>
