<svg width="20" height="20" viewBox="0 0 20 20" fill="none" xmlns="http://www.w3.org/2000/svg">
<g clip-path="url(#clip0_408_7415)">
<path d="M10.0001 18.3337C14.6025 18.3337 18.3334 14.6027 18.3334 10.0003C18.3334 5.39795 14.6025 1.66699 10.0001 1.66699C5.39771 1.66699 1.66675 5.39795 1.66675 10.0003C1.66675 14.6027 5.39771 18.3337 10.0001 18.3337Z" stroke="#A4A7AE" stroke-width="1.66667" stroke-linecap="round" stroke-linejoin="round"/>
<path d="M10.0001 15.0003C12.7615 15.0003 15.0001 12.7617 15.0001 10.0003C15.0001 7.2389 12.7615 5.00033 10.0001 5.00033C7.23866 5.00033 5.00008 7.2389 5.00008 10.0003C5.00008 12.7617 7.23866 15.0003 10.0001 15.0003Z" stroke="#A4A7AE" stroke-width="1.66667" stroke-linecap="round" stroke-linejoin="round"/>
<path d="M10.0001 11.667C10.9206 11.667 11.6667 10.9208 11.6667 10.0003C11.6667 9.07985 10.9206 8.33366 10.0001 8.33366C9.07961 8.33366 8.33342 9.07985 8.33342 10.0003C8.33342 10.9208 9.07961 11.667 10.0001 11.667Z" stroke="#A4A7AE" stroke-width="1.66667" stroke-linecap="round" stroke-linejoin="round"/>
</g>
<defs>
<clipPath id="clip0_408_7415">
<rect width="20" height="20" fill="white"/>
</clipPath>
</defs>
</svg>
