<svg width="16" height="16" viewBox="0 0 16 16" fill="none" xmlns="http://www.w3.org/2000/svg">
<path d="M1.91476 12.0766C1.94539 11.801 1.9607 11.6632 2.0024 11.5343C2.03941 11.42 2.09168 11.3113 2.15782 11.211C2.23237 11.0979 2.33043 10.9999 2.52655 10.8037L11.3307 1.99955C12.0671 1.26317 13.261 1.26317 13.9974 1.99955C14.7338 2.73593 14.7338 3.92984 13.9974 4.66622L5.19321 13.4704C4.99709 13.6665 4.89903 13.7646 4.78599 13.8391C4.68569 13.9053 4.57692 13.9575 4.46263 13.9945C4.3338 14.0362 4.19597 14.0516 3.92031 14.0822L1.66406 14.3329L1.91476 12.0766Z" stroke="#A4A7AE" stroke-width="1.5" stroke-linecap="round" stroke-linejoin="round"/>
</svg>
