<svg width="20" height="20" viewBox="0 0 20 20" fill="none" xmlns="http://www.w3.org/2000/svg">
<path d="M11.6654 9.16675H6.66536M8.33203 12.5001H6.66536M13.332 5.83341H6.66536M16.6654 5.66675V14.3334C16.6654 15.7335 16.6654 16.4336 16.3929 16.9684C16.1532 17.4388 15.7707 17.8212 15.3003 18.0609C14.7656 18.3334 14.0655 18.3334 12.6654 18.3334H7.33203C5.9319 18.3334 5.23183 18.3334 4.69705 18.0609C4.22665 17.8212 3.8442 17.4388 3.60451 16.9684C3.33203 16.4336 3.33203 15.7335 3.33203 14.3334V5.66675C3.33203 4.26662 3.33203 3.56655 3.60451 3.03177C3.8442 2.56137 4.22665 2.17892 4.69705 1.93923C5.23183 1.66675 5.9319 1.66675 7.33203 1.66675H12.6654C14.0655 1.66675 14.7656 1.66675 15.3003 1.93923C15.7707 2.17892 16.1532 2.56137 16.3929 3.03177C16.6654 3.56655 16.6654 4.26662 16.6654 5.66675Z" stroke="#A4A7AE" stroke-width="1.67" stroke-linecap="round" stroke-linejoin="round"/>
</svg>
