<svg width="20" height="20" viewBox="0 0 20 20" fill="none" xmlns="http://www.w3.org/2000/svg">
<path d="M4.16602 8.33331V13.3426C4.16602 13.6417 4.16602 13.7913 4.21156 13.9233C4.25184 14.0401 4.31757 14.1465 4.404 14.2347C4.50174 14.3345 4.63552 14.4014 4.90306 14.5352L9.40306 16.7852C9.62169 16.8945 9.73102 16.9491 9.84568 16.9707C9.94724 16.9897 10.0515 16.9897 10.153 16.9707C10.2677 16.9491 10.377 16.8945 10.5956 16.7852L15.0956 14.5352C15.3632 14.4014 15.497 14.3345 15.5947 14.2347C15.6811 14.1465 15.7469 14.0401 15.7871 13.9233C15.8327 13.7913 15.8327 13.6417 15.8327 13.3426V8.33331M1.66602 7.08331L9.70121 3.06571C9.81052 3.01105 9.86518 2.98372 9.92252 2.97297C9.97329 2.96344 10.0254 2.96344 10.0762 2.97297C10.1335 2.98372 10.1882 3.01105 10.2975 3.06571L18.3327 7.08331L10.2975 11.1009C10.1882 11.1556 10.1335 11.1829 10.0762 11.1936C10.0254 11.2032 9.97329 11.2032 9.92252 11.1936C9.86518 11.1829 9.81052 11.1556 9.70121 11.1009L1.66602 7.08331Z" stroke="#A4A7AE" stroke-width="1.39167" stroke-linecap="round" stroke-linejoin="round"/>
</svg>
