<svg xmlns="http://www.w3.org/2000/svg" viewBox="0 0 48 32" fill="none">
  <rect width="48" height="32" rx="4" fill="#003087"/>
  <path d="M18.5 9.5c1.8 0 3.2.4 4.1 1.3.9.8 1.3 2.1 1.3 3.8 0 .9-.2 1.8-.5 2.6-.3.8-.8 1.5-1.4 2-.6.5-1.3.9-2.1 1.2-.8.3-1.7.4-2.7.4h-1.4l-.9 4.7h-2.5l2.8-14.5h5.3v-.5zm-3.2 8.9h1.3c.8 0 1.5-.1 2-.4.5-.3.9-.7 1.1-1.2.3-.5.4-1.1.4-1.7 0-.7-.2-1.2-.6-1.5-.4-.3-1-.5-1.8-.5h-1.6l-.8 5.3zm13.9-8.9c1.8 0 3.2.4 4.1 1.3.9.8 1.3 2.1 1.3 3.8 0 .9-.2 1.8-.5 2.6-.3.8-.8 1.5-1.4 2-.6.5-1.3.9-2.1 1.2-.8.3-1.7.4-2.7.4h-1.4l-.9 4.7h-2.5l2.8-14.5h5.3v-.5zm-3.2 8.9h1.3c.8 0 1.5-.1 2-.4.5-.3.9-.7 1.1-1.2.3-.5.4-1.1.4-1.7 0-.7-.2-1.2-.6-1.5-.4-.3-1-.5-1.8-.5h-1.6l-.8 5.3z" fill="#FFFFFF"/>
  <path d="M18.5 9.5c1.8 0 3.2.4 4.1 1.3.9.8 1.3 2.1 1.3 3.8 0 .9-.2 1.8-.5 2.6-.3.8-.8 1.5-1.4 2-.6.5-1.3.9-2.1 1.2-.8.3-1.7.4-2.7.4h-1.4l-.9 4.7h-2.5l2.8-14.5h5.3v-.5zm-3.2 8.9h1.3c.8 0 1.5-.1 2-.4.5-.3.9-.7 1.1-1.2.3-.5.4-1.1.4-1.7 0-.7-.2-1.2-.6-1.5-.4-.3-1-.5-1.8-.5h-1.6l-.8 5.3zm13.9-8.9c1.8 0 3.2.4 4.1 1.3.9.8 1.3 2.1 1.3 3.8 0 .9-.2 1.8-.5 2.6-.3.8-.8 1.5-1.4 2-.6.5-1.3.9-2.1 1.2-.8.3-1.7.4-2.7.4h-1.4l-.9 4.7h-2.5l2.8-14.5h5.3v-.5zm-3.2 8.9h1.3c.8 0 1.5-.1 2-.4.5-.3.9-.7 1.1-1.2.3-.5.4-1.1.4-1.7 0-.7-.2-1.2-.6-1.5-.4-.3-1-.5-1.8-.5h-1.6l-.8 5.3z" fill="#009CDE" opacity="0.7"/>
</svg>
