<svg width="20" height="20" viewBox="0 0 20 20" fill="none" xmlns="http://www.w3.org/2000/svg">
<path fill-rule="evenodd" clip-rule="evenodd" d="M7.92057 2.33515C7.93053 2.34179 7.94053 2.34846 7.95055 2.35514L16.7412 8.21555C16.9955 8.38508 17.2314 8.54228 17.4125 8.68835C17.6015 8.8408 17.8243 9.05219 17.9526 9.36145C18.1221 9.7702 18.1221 10.2296 17.9526 10.6383C17.8243 10.9476 17.6015 11.159 17.4125 11.3114C17.2314 11.4575 16.9955 11.6147 16.7412 11.7842L7.9206 17.6646C7.60969 17.8719 7.33013 18.0583 7.09291 18.1869C6.85552 18.3155 6.52968 18.4625 6.14936 18.4398C5.6629 18.4108 5.21353 18.1703 4.91952 17.7816C4.68966 17.4778 4.63124 17.1251 4.6066 16.8563C4.58199 16.5876 4.58201 16.2516 4.58203 15.8779L4.58203 4.15792C4.58203 4.14587 4.58203 4.13386 4.58203 4.12188C4.58201 3.74822 4.58199 3.41222 4.6066 3.14354C4.63124 2.87466 4.68966 2.52199 4.91952 2.21815C5.21353 1.8295 5.6629 1.589 6.14936 1.55996C6.52968 1.53725 6.85552 1.68426 7.09291 1.81291C7.33012 1.94146 7.60968 2.12786 7.92057 2.33515Z" fill="#FFFDFB"/>
</svg>
