<svg width="56" height="56" viewBox="0 0 56 56" fill="none" xmlns="http://www.w3.org/2000/svg">
<rect width="56" height="56" fill="white"/>
<path d="M27.9987 34.9999L20.9987 27.9999M27.9987 34.9999C31.258 33.7603 34.3848 32.1969 37.332 30.3333M27.9987 34.9999V46.6666C27.9987 46.6666 35.0687 45.3833 37.332 41.9999C39.852 38.2199 37.332 30.3333 37.332 30.3333M20.9987 27.9999C22.2404 24.7786 23.8038 21.6907 25.6654 18.7833C28.3841 14.4362 32.1698 10.857 36.6624 8.38614C41.1549 5.91524 46.2049 4.63479 51.332 4.66659C51.332 11.0133 49.512 22.1666 37.332 30.3333M20.9987 27.9999H9.33203C9.33203 27.9999 10.6154 20.9299 13.9987 18.6666C17.7787 16.1466 25.6654 18.6666 25.6654 18.6666M10.4987 38.4999C6.9987 41.4399 5.83203 50.1666 5.83203 50.1666C5.83203 50.1666 14.5587 48.9999 17.4987 45.4999C19.1554 43.5399 19.132 40.5299 17.2887 38.7099C16.3817 37.8443 15.187 37.3441 13.9339 37.3053C12.6807 37.2666 11.4574 37.692 10.4987 38.4999Z" stroke="#F4A43A" stroke-width="4" stroke-linecap="round" stroke-linejoin="round"/>
</svg>
