<svg width="20" height="20" viewBox="0 0 20 20" fill="none" xmlns="http://www.w3.org/2000/svg">
<g clip-path="url(#clip0_650_46614)">
<path d="M10.0013 18.3337C14.6037 18.3337 18.3346 14.6027 18.3346 10.0003C18.3346 5.39795 14.6037 1.66699 10.0013 1.66699C5.39893 1.66699 1.66797 5.39795 1.66797 10.0003C1.66797 14.6027 5.39893 18.3337 10.0013 18.3337Z" stroke="#A4A7AE" stroke-width="1.66667" stroke-linecap="round" stroke-linejoin="round"/>
<path d="M10.0013 15.0003C12.7627 15.0003 15.0013 12.7617 15.0013 10.0003C15.0013 7.2389 12.7627 5.00033 10.0013 5.00033C7.23988 5.00033 5.0013 7.2389 5.0013 10.0003C5.0013 12.7617 7.23988 15.0003 10.0013 15.0003Z" stroke="#A4A7AE" stroke-width="1.66667" stroke-linecap="round" stroke-linejoin="round"/>
<path d="M10.0013 11.667C10.9218 11.667 11.668 10.9208 11.668 10.0003C11.668 9.07985 10.9218 8.33366 10.0013 8.33366C9.08083 8.33366 8.33464 9.07985 8.33464 10.0003C8.33464 10.9208 9.08083 11.667 10.0013 11.667Z" stroke="#A4A7AE" stroke-width="1.66667" stroke-linecap="round" stroke-linejoin="round"/>
</g>
<defs>
<clipPath id="clip0_650_46614">
<rect width="20" height="20" fill="white"/>
</clipPath>
</defs>
</svg>
