<svg xmlns="http://www.w3.org/2000/svg" viewBox="0 0 48 32" fill="none">
  <rect width="48" height="32" rx="4" fill="#1A1F71"/>
  <path d="M21.5 11.5h-3.2l-2 12.5h3.2l2-12.5zm9.8 8.1l1.7-4.7.98 4.7h-2.68zm3.6 4.4h3l-2.6-12.5h-2.8c-.6 0-1.1.4-1.3.9l-4.6 11.6h3.4l.7-1.9h4.2l.4 1.9zM24.8 18c0-3.3-4.6-3.5-4.6-5 0-.5.5-.9 1.5-.9 1.3 0 2.8.3 4 .8l.6-2.8c-1.2-.4-2.8-.8-4.6-.8-3.3 0-5.6 1.7-5.6 4.2 0 1.8 1.6 2.8 2.8 3.4 1.3.6 1.7.9 1.7 1.4 0 .8-.9 1.1-1.8 1.1-1.5 0-3.3-.4-4.8-1l-.6 2.9c1.5.6 3.6 1 5.5 1 3.7 0 6-1.7 6-4.3zM44 11.5h-2.8l-4.4 12.5h3.4l.7-1.9h4.2l.4 1.9H48l-2.6-12.5h-1.4z" fill="white"/>
</svg>
